<svg width="100" height="60" viewBox="0 0 100 60" fill="none" xmlns="http://www.w3.org/2000/svg">
<rect width="100" height="60" fill="#F2F2F2"/>
<g id="Sign In">
<rect width="375" height="812" transform="translate(-245 -639)" fill="white"/>
<g id="Sign In_Board" clip-path="url(#clip0_0_1)">
<g id="Linkedin_icon">
<path id="Base" opacity="0.485445" d="M99.5 59.5H0.5V0.5H99.5V59.5Z" stroke="#E2E2E0"/>
<g id="iconfinder_linkedin-social-media_765228">
<path id="Shape" fill-rule="evenodd" clip-rule="evenodd" d="M45.3618 22.7361C45.3426 21.8004 44.7189 21.0879 43.7058 21.0879C42.6924 21.0879 42.0303 21.8004 42.0303 22.7361C42.0303 23.6515 42.6732 24.3846 43.667 24.3846H43.6863C44.7189 24.3846 45.3618 23.6515 45.3618 22.7361ZM45.3618 36.8989V26.4425H42.13V36.8989H45.3618ZM50.6344 30.9413V36.8989H47.386C47.386 36.8989 47.4328 27.3804 47.386 26.3794H50.634L50.6107 27.7779C51.077 27.0499 51.9167 25.9804 53.8297 25.9804C56.1629 25.9804 57.9121 27.5051 57.9121 30.7819V36.8989H54.6585V30.9413C54.6585 29.5075 53.8537 28.7792 52.5705 28.7792C51.5909 28.7792 51.0075 29.439 50.7512 30.0764C50.6574 30.3037 50.6344 30.6225 50.6344 30.9413Z" fill="#0078B5"/>
</g>
</g>
</g>
</g>
<defs>
<clipPath id="clip0_0_1">
<rect width="315" height="466" fill="white" transform="translate(-215 -333)"/>
</clipPath>
</defs>
</svg>
