<svg width="100" height="60" viewBox="0 0 100 60" fill="none" xmlns="http://www.w3.org/2000/svg">
<g id="Twitter_icon">
<path id="Base Copy" opacity="0.485445" d="M99.5 59.5H0.5V0.5H99.5V59.5Z" stroke="#E2E2E0"/>
<g id="iconfinder_1_Twitter_colored_svg_5296514">
<path id="Path" d="M45.8404 37.7143C52.8485 37.7143 56.6816 31.668 56.6816 26.4247C56.6816 26.253 56.6816 26.082 56.6705 25.9118C57.4162 25.3501 58.0599 24.6547 58.5714 23.858C57.8761 24.1789 57.1383 24.3893 56.383 24.4822C57.1782 23.9865 57.7738 23.2062 58.0581 22.2876C57.3102 22.7497 56.4919 23.0755 55.6386 23.2507C54.9182 22.4529 53.912 22 52.8604 22C50.7682 22 49.0466 23.7928 49.0466 25.9715C49.0466 26.2738 49.0797 26.5751 49.1453 26.8695C46.0833 26.7097 43.2264 25.2014 41.2926 22.7239C40.287 24.5266 40.8073 26.8629 42.4722 28.0206C41.8659 28.0019 41.2727 27.8315 40.7429 27.5239V27.5742C40.7434 29.4558 42.0286 31.0912 43.7997 31.4638C43.2388 31.6231 42.6501 31.6463 42.0793 31.5319C42.5772 33.1442 44.013 34.2555 45.639 34.2873C44.2901 35.3913 42.6227 35.991 40.907 35.9892C40.6039 35.9886 40.301 35.9695 40 35.932C41.7423 37.0963 43.7701 37.7141 45.8404 37.7112" fill="#1DA1F2"/>
</g>
</g>
</svg>
